<svg xmlns="http://www.w3.org/2000/svg" width="1200" height="820" viewBox="0 0 1200 820" role="img" aria-labelledby="title desc"><title id="title">RAFT：全对相关可复用，流状态循环更新</title><desc id="desc">流保持在1/8网格；相关金字塔提供多尺度查找，最后上采样并转换向量单位。</desc><rect width="1200" height="820" fill="#f7f5ef"/><g font-family="Microsoft YaHei, PingFang SC, Noto Sans CJK SC, sans-serif"><text x="45" y="58" font-size="34" fill="#26372f" text-anchor="start">RAFT：全对相关可复用，流状态循环更新</text><text x="45" y="100" font-size="22" fill="#5b6b62" text-anchor="start">流保持在1/8网格；相关金字塔提供多尺度查找，最后上采样并转换向量单位。</text><rect x="55" y="170" width="270" height="140" rx="13" fill="#d9e8de" stroke="#95a99b" stroke-width="2"/><text x="75" y="210" font-size="28" fill="#26372f" text-anchor="start">两帧特征</text><text x="75" y="252" font-size="22" fill="#26372f" text-anchor="start">共享编码器</text><text x="75" y="284" font-size="22" fill="#26372f" text-anchor="start">每帧D×h×w</text><line x1="340" y1="240" x2="390" y2="240" stroke="#26372f" stroke-width="3"/><path d="M 379 233 L 390 240 L 379 247" fill="none" stroke="#26372f" stroke-width="3"/><rect x="405" y="170" width="330" height="140" rx="13" fill="#dce8f4" stroke="#95a99b" stroke-width="2"/><text x="425" y="210" font-size="28" fill="#26372f" text-anchor="start">全对相关 / 金字塔</text><text x="425" y="252" font-size="22" fill="#26372f" text-anchor="start">N×N相关，N=h×w</text><text x="425" y="284" font-size="22" fill="#26372f" text-anchor="start">仅池化目标位置轴</text><rect x="825" y="170" width="320" height="140" rx="13" fill="#f3dfc4" stroke="#95a99b" stroke-width="2"/><text x="845" y="210" font-size="28" fill="#26372f" text-anchor="start">context与隐藏态</text><text x="845" y="252" font-size="22" fill="#26372f" text-anchor="start">来自第一帧</text><text x="845" y="284" font-size="22" fill="#26372f" text-anchor="start">为迭代提供空间信息</text><line x1="580" y1="325" x2="580" y2="375" stroke="#26372f" stroke-width="3"/><line x1="980" y1="325" x2="980" y2="375" stroke="#26372f" stroke-width="3"/><rect x="55" y="420" width="270" height="170" rx="13" fill="#f3dfc4" stroke="#95a99b" stroke-width="2"/><text x="75" y="460" font-size="28" fill="#26372f" text-anchor="start">当前流fₜ</text><text x="75" y="502" font-size="22" fill="#26372f" text-anchor="start">目标中心p+fₜ</text><text x="75" y="534" font-size="22" fill="#26372f" text-anchor="start">初始通常零流</text><line x1="340" y1="500" x2="390" y2="500" stroke="#26372f" stroke-width="3"/><path d="M 379 493 L 390 500 L 379 507" fill="none" stroke="#26372f" stroke-width="3"/><rect x="405" y="420" width="330" height="170" rx="13" fill="#dce8f4" stroke="#95a99b" stroke-width="2"/><text x="425" y="460" font-size="28" fill="#26372f" text-anchor="start">查找 + ConvGRU</text><text x="425" y="502" font-size="22" fill="#26372f" text-anchor="start">按当前流读取相关证据</text><text x="425" y="534" font-size="22" fill="#26372f" text-anchor="start">更新隐藏状态hₜ</text><line x1="750" y1="500" x2="800" y2="500" stroke="#26372f" stroke-width="3"/><path d="M 789 493 L 800 500 L 789 507" fill="none" stroke="#26372f" stroke-width="3"/><rect x="825" y="420" width="320" height="170" rx="13" fill="#d9e8de" stroke="#95a99b" stroke-width="2"/><text x="845" y="460" font-size="28" fill="#26372f" text-anchor="start">增量与新流</text><text x="845" y="502" font-size="22" fill="#26372f" text-anchor="start">预测Δfₜ</text><text x="845" y="534" font-size="22" fill="#26372f" text-anchor="start">fₜ₊₁ = fₜ + Δfₜ</text><line x1="980" y1="605" x2="980" y2="650" stroke="#26372f" stroke-width="3"/><line x1="980" y1="650" x2="190" y2="650" stroke="#26372f" stroke-width="3"/><line x1="190" y1="650" x2="190" y2="605" stroke="#26372f" stroke-width="3"/><text x="400" y="690" font-size="24" fill="#26372f" text-anchor="start">多轮共享权重；detach规则决定实际梯度图</text><text x="55" y="755" font-size="26" fill="#26372f" text-anchor="start">全图输出：9邻居凸组合，8×8子位置；粗网格流向量先乘8。</text></g></svg>
